<?xml version="1.0" encoding="utf-8"?>
<!-- Generator: Adobe Illustrator 27.5.0, SVG Export Plug-In . SVG Version: 6.00 Build 0)  -->
<svg version="1.1" xmlns="http://www.w3.org/2000/svg" xmlns:xlink="http://www.w3.org/1999/xlink" x="0px" y="0px"
	 viewBox="0 0 500 500" style="enable-background:new 0 0 500 500;" xml:space="preserve">
<g id="Background_Simple">
	<g>
		<path style="fill:#92E3A9;" d="M352.605,56.576c-24.287,1.008-48.103,4.439-65.949,6.125
			c-42.145,3.982-84.245,8.493-126.058,14.58c-27.137,3.95-54.586,7.232-80.856,14.745c-15.416,4.409-34.475,11.178-39.924,26.984
			c-6.285,18.23,3.716,41.811,8.588,59.644c9.434,34.527,21.986,68.408,35.684,101.709c18.519,45.021,38.003,96.418,70.457,134.811
			c43.403,51.343,163.142,60.234,211.765-9.648c48.623-69.882,103.746-252.023,92.481-298.323
			C447.709,61.649,399.289,54.638,352.605,56.576z"/>
		<path style="opacity:0.7;fill:#FFFFFF;" d="M352.605,56.576c-24.287,1.008-48.103,4.439-65.949,6.125
			c-42.145,3.982-84.245,8.493-126.058,14.58c-27.137,3.95-54.586,7.232-80.856,14.745c-15.416,4.409-34.475,11.178-39.924,26.984
			c-6.285,18.23,3.716,41.811,8.588,59.644c9.434,34.527,21.986,68.408,35.684,101.709c18.519,45.021,38.003,96.418,70.457,134.811
			c43.403,51.343,163.142,60.234,211.765-9.648c48.623-69.882,103.746-252.023,92.481-298.323
			C447.709,61.649,399.289,54.638,352.605,56.576z"/>
	</g>
</g>
<g id="Questions_Marks">
	<g style="opacity:0.3;">
		<path style="fill:none;stroke:#000000;stroke-miterlimit:10;" d="M393.388,312.235V301.29c2.943-2.59,5.605-5.178,7.988-7.768
			c2.384-2.589,4.282-5.325,5.693-8.209c1.413-2.882,2.12-6.032,2.12-9.445c0-2.766-0.722-5.061-2.163-6.886
			c-1.443-1.823-3.546-2.737-6.312-2.737c-2.353,0-4.223,0.677-5.605,2.03c-1.382,1.354-2.074,3.089-2.074,5.208
			c0,0.765,0.057,1.487,0.176,2.163c0.117,0.677,0.264,1.427,0.441,2.251l-8.826,1.676c-0.295-0.883-0.53-1.809-0.707-2.78
			s-0.264-1.897-0.264-2.78c0-4.707,1.47-8.548,4.413-11.52c2.943-2.97,7.091-4.458,12.446-4.458c5.59,0,9.944,1.576,13.064,4.722
			c3.119,3.15,4.679,7.608,4.679,13.374c0,3.943-0.738,7.503-2.208,10.68c-1.47,3.179-3.473,6.122-6.001,8.828
			c-2.531,2.707-5.356,5.384-8.475,8.033v8.562H393.388z M392.948,330.154v-9.711h9.445v9.711H392.948z"/>
	</g>
	<g style="opacity:0.3;">
		<path style="fill:none;stroke:#000000;stroke-miterlimit:10;" d="M199.145,107.466v-7.985c2.147-1.889,4.089-3.778,5.828-5.667
			c1.74-1.888,3.124-3.885,4.154-5.989c1.031-2.103,1.547-4.401,1.547-6.89c0-2.018-0.527-3.692-1.578-5.023
			c-1.053-1.33-2.587-1.997-4.605-1.997c-1.717,0-3.081,0.494-4.089,1.481c-1.008,0.988-1.513,2.254-1.513,3.799
			c0,0.558,0.042,1.085,0.129,1.578c0.086,0.494,0.193,1.041,0.322,1.643l-6.439,1.223c-0.215-0.644-0.387-1.32-0.516-2.028
			c-0.129-0.708-0.193-1.384-0.193-2.028c0-3.434,1.073-6.236,3.22-8.404c2.147-2.167,5.173-3.252,9.08-3.252
			c4.078,0,7.255,1.149,9.531,3.445c2.275,2.298,3.414,5.55,3.414,9.757c0,2.877-0.538,5.474-1.611,7.792
			c-1.073,2.319-2.534,4.466-4.378,6.44c-1.847,1.975-3.908,3.928-6.183,5.86v6.246H199.145z M198.824,120.54v-7.085h6.89v7.085
			H198.824z"/>
	</g>
	<g style="opacity:0.3;">
		<path style="fill:none;stroke:#000000;stroke-miterlimit:10;" d="M73.395,338.196v-7.985c2.147-1.89,4.089-3.778,5.828-5.668
			c1.74-1.888,3.124-3.885,4.154-5.989c1.031-2.103,1.547-4.401,1.547-6.89c0-2.018-0.527-3.692-1.578-5.023
			c-1.052-1.33-2.587-1.997-4.605-1.997c-1.717,0-3.081,0.494-4.089,1.481c-1.008,0.988-1.513,2.254-1.513,3.799
			c0,0.558,0.042,1.085,0.129,1.578c0.086,0.494,0.193,1.041,0.321,1.642l-6.439,1.223c-0.215-0.644-0.387-1.32-0.516-2.028
			c-0.129-0.708-0.193-1.384-0.193-2.028c0-3.434,1.073-6.236,3.22-8.404c2.147-2.167,5.174-3.252,9.08-3.252
			c4.078,0,7.255,1.15,9.531,3.445c2.275,2.298,3.414,5.55,3.414,9.757c0,2.877-0.538,5.474-1.611,7.792
			c-1.073,2.319-2.534,4.466-4.378,6.44c-1.847,1.975-3.908,3.928-6.183,5.86v6.246H73.395z M73.074,351.269v-7.085h6.89v7.085
			H73.074z"/>
	</g>
	<g style="opacity:0.3;">
		<path style="fill:none;stroke:#000000;stroke-miterlimit:10;" d="M314.47,128.684v-5.234c1.407-1.239,2.68-2.476,3.82-3.715
			c1.14-1.238,2.047-2.547,2.723-3.926c0.676-1.378,1.014-2.884,1.014-4.516c0-1.323-0.345-2.42-1.034-3.293
			c-0.69-0.872-1.695-1.309-3.018-1.309c-1.125,0-2.019,0.324-2.68,0.971c-0.661,0.648-0.992,1.477-0.992,2.49
			c0,0.366,0.027,0.711,0.084,1.035c0.056,0.324,0.126,0.682,0.211,1.076l-4.22,0.802c-0.141-0.422-0.254-0.865-0.338-1.329
			c-0.084-0.464-0.126-0.907-0.126-1.329c0-2.251,0.703-4.087,2.11-5.509c1.407-1.42,3.391-2.132,5.952-2.132
			c2.673,0,4.755,0.754,6.247,2.258c1.491,1.506,2.237,3.638,2.237,6.395c0,1.886-0.353,3.588-1.056,5.107
			c-0.703,1.52-1.661,2.927-2.87,4.221c-1.21,1.295-2.561,2.575-4.053,3.841v4.094H314.47z M314.259,137.253v-4.644h4.516v4.644
			H314.259z"/>
	</g>
	<g style="opacity:0.3;">
		<path style="fill:none;stroke:#000000;stroke-miterlimit:10;" d="M314.28,391.955v-5.234c1.407-1.238,2.68-2.476,3.82-3.715
			c1.14-1.238,2.047-2.546,2.723-3.925c0.676-1.378,1.014-2.884,1.014-4.516c0-1.323-0.345-2.42-1.034-3.293
			c-0.69-0.872-1.695-1.309-3.018-1.309c-1.125,0-2.019,0.324-2.68,0.971c-0.661,0.648-0.992,1.477-0.992,2.49
			c0,0.366,0.027,0.711,0.084,1.035c0.056,0.324,0.126,0.682,0.211,1.077l-4.22,0.802c-0.141-0.422-0.254-0.865-0.338-1.329
			c-0.084-0.464-0.126-0.907-0.126-1.329c0-2.251,0.703-4.087,2.11-5.509c1.407-1.42,3.391-2.132,5.952-2.132
			c2.673,0,4.755,0.754,6.247,2.258c1.491,1.506,2.237,3.638,2.237,6.395c0,1.885-0.353,3.588-1.056,5.107
			c-0.703,1.52-1.661,2.927-2.87,4.221c-1.21,1.295-2.561,2.575-4.053,3.841v4.094H314.28z M314.069,400.524v-4.644h4.516v4.644
			H314.069z"/>
	</g>
	<g style="opacity:0.3;">
		<path style="fill:none;stroke:#000000;stroke-miterlimit:10;" d="M58.118,146.35v-5.234c1.407-1.239,2.68-2.476,3.82-3.715
			c1.14-1.238,2.047-2.546,2.723-3.925c0.676-1.378,1.014-2.884,1.014-4.516c0-1.323-0.345-2.42-1.034-3.293
			c-0.69-0.872-1.695-1.309-3.018-1.309c-1.125,0-2.019,0.324-2.68,0.971c-0.661,0.648-0.992,1.477-0.992,2.49
			c0,0.366,0.027,0.711,0.084,1.035c0.056,0.324,0.126,0.682,0.211,1.077l-4.221,0.801c-0.141-0.422-0.254-0.865-0.338-1.329
			c-0.084-0.464-0.126-0.907-0.126-1.329c0-2.251,0.703-4.088,2.11-5.509c1.407-1.42,3.391-2.132,5.952-2.132
			c2.673,0,4.755,0.753,6.247,2.258c1.491,1.506,2.237,3.638,2.237,6.395c0,1.885-0.353,3.588-1.056,5.107
			c-0.703,1.52-1.661,2.927-2.87,4.221c-1.21,1.295-2.561,2.575-4.053,3.841v4.094H58.118z M57.907,154.919v-4.644h4.516v4.644
			H57.907z"/>
	</g>
	<g style="opacity:0.3;">
		<path style="fill:none;stroke:#000000;stroke-miterlimit:10;" d="M138.514,255.752v-5.234c1.407-1.238,2.68-2.476,3.82-3.715
			c1.14-1.238,2.047-2.547,2.723-3.926c0.676-1.378,1.014-2.884,1.014-4.516c0-1.323-0.345-2.42-1.034-3.293
			c-0.69-0.872-1.695-1.309-3.018-1.309c-1.125,0-2.019,0.324-2.68,0.971c-0.661,0.648-0.992,1.477-0.992,2.49
			c0,0.366,0.027,0.711,0.084,1.035c0.056,0.324,0.126,0.682,0.211,1.077l-4.22,0.801c-0.141-0.422-0.254-0.865-0.338-1.329
			c-0.084-0.464-0.126-0.907-0.126-1.329c0-2.251,0.703-4.087,2.11-5.509c1.407-1.42,3.391-2.132,5.952-2.132
			c2.673,0,4.755,0.753,6.247,2.258c1.491,1.506,2.237,3.638,2.237,6.395c0,1.885-0.353,3.588-1.056,5.107
			c-0.703,1.52-1.661,2.927-2.87,4.221c-1.21,1.295-2.561,2.575-4.053,3.841v4.094H138.514z M138.304,264.321v-4.644h4.516v4.644
			H138.304z"/>
	</g>
	<g style="opacity:0.3;">
		<path style="fill:none;stroke:#000000;stroke-miterlimit:10;" d="M444.642,191.008v-5.234c1.407-1.238,2.68-2.476,3.82-3.715
			c1.14-1.238,2.047-2.547,2.723-3.926c0.676-1.378,1.014-2.884,1.014-4.516c0-1.323-0.345-2.42-1.034-3.293
			c-0.69-0.872-1.695-1.309-3.018-1.309c-1.125,0-2.019,0.324-2.68,0.971c-0.661,0.648-0.992,1.477-0.992,2.49
			c0,0.366,0.027,0.711,0.084,1.034c0.056,0.324,0.126,0.683,0.211,1.077l-4.221,0.801c-0.141-0.422-0.254-0.865-0.338-1.329
			c-0.084-0.464-0.126-0.907-0.126-1.329c0-2.251,0.703-4.087,2.11-5.509c1.407-1.42,3.391-2.132,5.952-2.132
			c2.673,0,4.755,0.753,6.247,2.258c1.491,1.506,2.238,3.638,2.238,6.395c0,1.885-0.353,3.588-1.056,5.107
			c-0.703,1.52-1.661,2.927-2.87,4.221c-1.21,1.295-2.561,2.575-4.053,3.841v4.094H444.642z M444.431,199.577v-4.644h4.516v4.644
			H444.431z"/>
	</g>
</g>
<g id="Button_2">
	<g>
		<g>
			
				<ellipse transform="matrix(0.9738 -0.2272 0.2272 0.9738 -15.0612 88.1812)" style="fill:#FFFFFF;stroke:#263238;stroke-linecap:round;stroke-linejoin:round;stroke-miterlimit:10;" cx="375.455" cy="109.504" rx="25.856" ry="25.856"/>
			
				<ellipse transform="matrix(0.446 -0.895 0.895 0.446 109.9881 396.7055)" style="fill:#92E3A9;stroke:#263238;stroke-width:2;stroke-linecap:round;stroke-linejoin:round;stroke-miterlimit:10;" cx="375.455" cy="109.504" rx="20.101" ry="20.101"/>
		</g>
		<g>
			
				<line style="fill:none;stroke:#263238;stroke-width:5;stroke-linecap:round;stroke-linejoin:round;stroke-miterlimit:10;" x1="366.695" y1="100.744" x2="384.214" y2="118.264"/>
			
				<line style="fill:none;stroke:#263238;stroke-width:5;stroke-linecap:round;stroke-linejoin:round;stroke-miterlimit:10;" x1="384.214" y1="100.744" x2="366.695" y2="118.264"/>
		</g>
	</g>
</g>
<g id="Button_1">
	<g>
		<g>
			
				<ellipse transform="matrix(0.7071 -0.7071 0.7071 0.7071 -42.4666 116.4011)" style="fill:#FFFFFF;stroke:#263238;stroke-linecap:round;stroke-linejoin:round;stroke-miterlimit:10;" cx="119.275" cy="109.462" rx="25.856" ry="25.856"/>
			
				<circle style="fill:#92E3A9;stroke:#263238;stroke-width:2;stroke-linecap:round;stroke-linejoin:round;stroke-miterlimit:10;" cx="119.275" cy="109.462" r="20.101"/>
		</g>
		
			<polyline style="fill:none;stroke:#263238;stroke-width:5;stroke-linecap:round;stroke-linejoin:round;stroke-miterlimit:10;" points="
			105.592,107.944 112.537,118.222 129.177,101.543 		"/>
	</g>
</g>
<g id="Text_2">
	<g>
		<path style="fill:#263238;" d="M344.85,195.793v-51.862h4.93l14.727,34.446v-34.446h6.018v51.862h-4.61l-14.918-35.407v35.407
			H344.85z"/>
		<path style="fill:#263238;" d="M391.91,196.369c-3.501,0-6.297-0.682-8.388-2.049c-2.092-1.366-3.585-3.318-4.481-5.858
			c-0.896-2.539-1.345-5.516-1.345-8.932v-19.656c0-3.415,0.458-6.349,1.376-8.804c0.918-2.454,2.411-4.332,4.482-5.634
			c2.069-1.302,4.854-1.953,8.355-1.953c3.499,0,6.274,0.663,8.323,1.985c2.049,1.324,3.531,3.202,4.45,5.634
			c0.917,2.433,1.376,5.357,1.376,8.772v19.72c0,3.373-0.459,6.317-1.376,8.835c-0.919,2.519-2.401,4.472-4.45,5.859
			C398.184,195.676,395.409,196.369,391.91,196.369z M391.91,190.671c1.921,0,3.371-0.394,4.353-1.185
			c0.982-0.79,1.643-1.899,1.985-3.33c0.341-1.429,0.512-3.105,0.512-5.026v-22.729c0-1.921-0.171-3.575-0.512-4.962
			c-0.343-1.387-1.004-2.454-1.985-3.202c-0.982-0.746-2.433-1.12-4.353-1.12s-3.384,0.374-4.386,1.12
			c-1.004,0.748-1.676,1.815-2.017,3.202c-0.343,1.387-0.513,3.041-0.513,4.962v22.729c0,1.921,0.17,3.597,0.513,5.026
			c0.341,1.431,1.013,2.54,2.017,3.33C388.526,190.277,389.989,190.671,391.91,190.671z"/>
	</g>
</g>
<g id="Text_1">
	<g>
		<path style="fill:#263238;" d="M88.095,195.793v-18.311l-11.205-33.55h6.723l7.939,25.035l7.811-25.035h6.787l-11.141,33.55
			v18.311H88.095z"/>
		<path style="fill:#263238;" d="M110.951,195.793v-51.862h20.104v5.378h-12.87v17.159h10.437v5.122h-10.437v19.016h12.998v5.186
			H110.951z"/>
		<path style="fill:#263238;" d="M149.239,196.369c-2.988,0-5.474-0.64-7.459-1.921c-1.985-1.28-3.489-3.051-4.514-5.314
			c-1.024-2.262-1.623-4.887-1.793-7.876l6.403-1.729c0.128,1.836,0.416,3.607,0.864,5.314c0.448,1.708,1.185,3.106,2.209,4.194
			c1.024,1.088,2.454,1.633,4.29,1.633c1.878,0,3.297-0.522,4.258-1.569c0.96-1.045,1.441-2.55,1.441-4.514
			c0-2.347-0.535-4.236-1.601-5.667c-1.067-1.43-2.412-2.87-4.034-4.322l-8.708-7.683c-1.708-1.494-2.967-3.126-3.777-4.898
			c-0.812-1.771-1.217-3.959-1.217-6.563c0-3.798,1.088-6.744,3.266-8.835c2.177-2.091,5.143-3.138,8.899-3.138
			c2.049,0,3.852,0.267,5.411,0.8c1.558,0.535,2.859,1.356,3.905,2.465c1.045,1.11,1.878,2.508,2.497,4.194
			c0.618,1.687,1.035,3.66,1.249,5.922l-6.146,1.665c-0.128-1.707-0.384-3.275-0.769-4.706c-0.384-1.429-1.056-2.582-2.017-3.457
			c-0.96-0.875-2.337-1.313-4.13-1.313c-1.792,0-3.191,0.48-4.194,1.441c-1.003,0.96-1.504,2.38-1.504,4.258
			c0,1.58,0.266,2.881,0.8,3.905c0.533,1.024,1.398,2.071,2.593,3.138l8.771,7.683c1.963,1.708,3.691,3.746,5.186,6.114
			c1.494,2.369,2.241,5.176,2.241,8.42c0,2.561-0.534,4.77-1.601,6.626c-1.067,1.857-2.529,3.276-4.386,4.258
			C153.817,195.878,151.672,196.369,149.239,196.369z"/>
	</g>
</g>
<g id="Plants">
	<g>
		<path style="fill:#263238;" d="M150.361,393.584c-1.984,0.83-6.803,0.647-6.807,0.647c-0.05-0.002,1.085-3.14,1.179-3.329
			c1.092-2.197,4.493-5.798,7.209-5.388c1.956,0.295,3.017,2.274,2.546,4.114C154.007,391.506,152.051,392.876,150.361,393.584z"/>
		<path style="fill:#263238;" d="M95.158,396.51c1.911-0.047,5.521-1.732,6.307-2.109c0.655,1.098,1.303,2.242,1.909,3.474
			c1.047,2.118,2.051,4.429,2.767,6.908c0.04,0.138,0.065,0.285,0.103,0.424c-0.276-0.415-1.954-2.584-2.088-2.721
			c-1.712-1.757-6.052-4.145-8.512-2.924c-1.773,0.88-2.176,3.089-1.165,4.695c1.033,1.641,3.315,2.348,5.14,2.505
			c2.103,0.18,6.484-1.396,6.649-1.456c0.641,2.33,1.122,4.771,1.471,7.277c0.256,1.817,0.44,3.667,0.607,5.525
			c-0.372-0.532-1.932-2.547-2.061-2.679c-1.712-1.757-6.051-4.145-8.512-2.924c-1.773,0.879-2.176,3.088-1.165,4.695
			c1.033,1.641,3.315,2.348,5.14,2.504c2.054,0.176,6.258-1.315,6.612-1.442c0.076,0.844,0.155,1.686,0.223,2.533
			c0.227,2.763,0.441,5.534,0.737,8.263c0.102,0.945,0.238,1.873,0.369,2.803c-0.582-0.78-1.668-2.179-1.775-2.288
			c-1.712-1.757-6.052-4.145-8.512-2.924c-1.773,0.88-2.176,3.089-1.165,4.695c1.033,1.641,3.314,2.348,5.14,2.504
			c1.834,0.158,5.396-1.021,6.394-1.366c0.231,1.545,0.493,3.073,0.825,4.565c0.156,0.64,0.275,1.304,0.46,1.91
			c0.174,0.615,0.346,1.224,0.516,1.826c0.396,1.234,0.759,2.383,1.157,3.521c0.197,0.577,0.396,1.117,0.595,1.676
			c-0.471-0.878-1.241-2.258-1.325-2.375c-1.425-1.996-5.354-5.014-7.97-4.18c-1.886,0.601-2.62,2.723-1.863,4.464
			c0.773,1.779,2.922,2.823,4.702,3.254c1.963,0.475,6.203-0.318,6.722-0.418c0.493,1.364,0.986,2.688,1.47,3.917
			c0.208,0.533,0.413,1.043,0.616,1.546l1.823,0.028c-0.303-0.698-0.613-1.425-0.929-2.184c-0.462-1.102-0.932-2.277-1.404-3.49
			c0.47-0.219,4.099-1.945,5.528-3.446c1.6,0.927,3.41,1.691,3.729,1.824c-0.341,1.41-0.661,2.786-0.935,4.078
			c-0.25,1.162-0.471,2.257-0.672,3.3l0.67,0.01h1.053c0.164-0.949,0.342-1.941,0.543-2.987c0.223-1.174,0.479-2.414,0.754-3.686
			c0.532,0.079,4.794,0.684,6.731,0.124c1.76-0.509,3.86-1.646,4.554-3.456c0.68-1.773-0.146-3.86-2.055-4.379
			c-2.651-0.719-6.444,2.468-7.78,4.524c-0.086,0.132-0.922,1.802-1.332,2.663c0.169-0.768,0.335-1.531,0.525-2.328
			c0.263-1.148,0.58-2.352,0.88-3.521c0.178-0.601,0.357-1.207,0.538-1.82c0.169-0.622,0.407-1.194,0.611-1.802
			c0.317-0.884,0.688-1.779,1.057-2.674c1.153,0.339,4.552,1.275,6.312,1.046c1.817-0.236,4.065-1.042,5.026-2.727
			c0.94-1.649,0.44-3.838-1.369-4.64c-2.511-1.113-6.743,1.463-8.376,3.293c-0.053,0.06-0.358,0.482-0.715,0.987
			c0.387-0.862,0.77-1.725,1.191-2.586c1.194-2.443,2.486-4.893,3.77-7.355c0.268-0.513,0.527-1.029,0.793-1.543
			c0.969,0.29,4.643,1.337,6.486,1.097c1.816-0.236,4.066-1.042,5.025-2.727c0.94-1.65,0.441-3.838-1.369-4.639
			c-2.511-1.113-6.742,1.463-8.376,3.293c-0.058,0.066-0.421,0.571-0.822,1.14c0.678-1.347,1.338-2.699,1.951-4.06
			c1.075-2.379,2.004-4.782,2.721-7.18c0.34,0.106,4.623,1.42,6.673,1.154c1.816-0.236,4.065-1.042,5.025-2.726
			c0.94-1.65,0.44-3.838-1.369-4.64c-2.512-1.112-6.743,1.463-8.376,3.293c-0.116,0.13-1.416,1.968-1.859,2.64
			c0.008-0.028,0.021-0.057,0.029-0.086c0.729-2.524,1.113-5.024,1.362-7.413c0.252-2.382,0.286-4.648,0.264-6.732
			c-0.016-2.086-0.16-3.992-0.301-5.678c-0.083-0.912-0.176-1.746-0.272-2.522c0.009,0.007,0.047,0.034,0.047,0.034
			c0.041,0.028,1.012-3.164,1.051-3.372c0.441-2.413-0.125-7.335-2.546-8.633c-1.743-0.935-3.778,0.014-4.502,1.77
			c-0.74,1.792,0.005,4.061,0.935,5.64c0.952,1.618,4.094,3.909,4.88,4.468c0.083,0.808,0.163,1.673,0.23,2.631
			c0.104,1.685,0.206,3.589,0.178,5.666c-0.006,0.553-0.036,1.148-0.054,1.725c-0.171-0.979-0.426-2.319-0.465-2.447
			c-0.72-2.344-3.491-6.452-6.237-6.489c-1.978-0.027-3.346,1.753-3.18,3.645c0.169,1.931,1.876,3.602,3.429,4.575
			c1.619,1.015,5.56,1.602,6.423,1.721c-0.059,1.277-0.149,2.589-0.324,3.95c-0.295,2.344-0.732,4.826-1.502,7.289
			c-0.043,0.137-0.104,0.273-0.148,0.41c-0.001-0.498-0.204-3.232-0.24-3.421c-0.458-2.409-2.761-6.796-5.486-7.134
			c-1.964-0.244-3.519,1.375-3.562,3.273c-0.044,1.939,1.469,3.787,2.905,4.924c1.655,1.311,6.178,2.413,6.349,2.454
			c-0.751,2.297-1.696,4.598-2.788,6.881c-0.789,1.656-1.657,3.301-2.542,4.943c-0.017-0.648-0.207-3.19-0.241-3.371
			c-0.459-2.41-2.761-6.796-5.487-7.134c-1.964-0.244-3.519,1.375-3.561,3.273c-0.044,1.939,1.469,3.787,2.905,4.924
			c1.616,1.28,5.945,2.355,6.311,2.444c-0.403,0.746-0.802,1.492-1.211,2.236c-1.336,2.43-2.685,4.859-3.943,7.298
			c-0.436,0.845-0.835,1.694-1.238,2.541c-0.055-0.971-0.19-2.737-0.218-2.888c-0.458-2.41-2.761-6.796-5.487-7.135
			c-1.964-0.244-3.518,1.375-3.561,3.274c-0.044,1.938,1.469,3.787,2.906,4.924c1.443,1.143,5.063,2.126,6.087,2.388
			c-0.66,1.416-1.284,2.836-1.831,4.263c-0.223,0.62-0.49,1.239-0.67,1.846c-0.195,0.609-0.387,1.211-0.578,1.807
			c-0.35,1.248-0.681,2.406-0.977,3.576c-0.154,0.59-0.285,1.15-0.428,1.726c0.091-0.993,0.21-2.568,0.205-2.712
			c-0.088-2.451-1.699-7.135-4.342-7.883c-1.904-0.539-3.687,0.826-4.017,2.696c-0.042,0.238-0.059,0.477-0.056,0.718
			c-1.18,1.844-1.8,4.484-1.787,6.113c0.001,0.157,0.225,2.011,0.359,2.955c-0.282-0.734-0.565-1.461-0.847-2.231
			c-0.413-1.103-0.813-2.282-1.209-3.422c-0.183-0.599-0.368-1.204-0.555-1.814c-0.201-0.613-0.318-1.221-0.485-1.84
			c-0.223-0.912-0.407-1.864-0.593-2.814c1.148-0.353,4.501-1.448,5.841-2.609c1.385-1.199,2.817-3.112,2.688-5.046
			c-0.126-1.895-1.75-3.444-3.702-3.115c-2.708,0.458-4.816,4.94-5.169,7.368c-0.011,0.079-0.033,0.599-0.052,1.217
			c-0.153-0.932-0.31-1.863-0.433-2.813c-0.352-2.696-0.626-5.453-0.913-8.214c-0.06-0.575-0.128-1.15-0.19-1.725
			c0.968-0.292,4.61-1.446,6.015-2.663c1.385-1.199,2.816-3.112,2.687-5.046c-0.125-1.894-1.75-3.444-3.701-3.115
			c-2.709,0.458-4.817,4.94-5.17,7.367c-0.013,0.087-0.037,0.709-0.058,1.405c-0.177-1.498-0.372-2.989-0.612-4.463
			c-0.416-2.577-0.966-5.094-1.691-7.488c0.342-0.1,4.639-1.367,6.201-2.719c1.385-1.199,2.816-3.112,2.688-5.046
			c-0.126-1.895-1.75-3.444-3.701-3.115c-2.709,0.458-4.817,4.941-5.17,7.368c-0.025,0.172-0.096,2.422-0.094,3.227
			c-0.009-0.029-0.014-0.059-0.023-0.087c-0.785-2.508-1.843-4.805-2.953-6.934c-1.105-2.126-2.325-4.034-3.494-5.761
			c-1.164-1.73-2.336-3.241-3.384-4.57c-0.573-0.715-1.11-1.359-1.618-1.953c0.012,0,0.058,0.001,0.058,0.001
			c0.05,0.001-0.901-3.197-0.984-3.392c-0.963-2.256-4.151-6.048-6.886-5.796c-1.97,0.181-3.143,2.096-2.779,3.959
			c0.372,1.903,2.246,3.385,3.891,4.189c1.687,0.824,5.571,1.002,6.535,1.033c0.516,0.629,1.059,1.306,1.643,2.068
			c1.017,1.348,2.152,2.88,3.274,4.628c0.3,0.465,0.604,0.977,0.907,1.468c-0.683-0.722-1.635-1.699-1.738-1.784
			c-1.894-1.558-6.47-3.455-8.782-1.971c-1.665,1.069-1.824,3.309-0.642,4.795C90.981,396.103,93.327,396.555,95.158,396.51z"/>
		<path style="fill:#263238;" d="M101.584,393.892c-0.043,0.026-0.827-3.218-0.854-3.428c-0.3-2.434,0.549-7.315,3.041-8.471
			c1.795-0.833,3.771,0.233,4.392,2.027c0.635,1.832-0.24,4.054-1.259,5.577C105.708,391.384,101.587,393.889,101.584,393.892z"/>
	</g>
	<g>
		<path style="fill:#263238;" d="M400.306,393.584c-1.984,0.83-6.803,0.647-6.807,0.647c-0.05-0.002,1.085-3.14,1.179-3.329
			c1.092-2.197,4.493-5.798,7.209-5.388c1.957,0.295,3.017,2.274,2.546,4.114C403.952,391.506,401.996,392.876,400.306,393.584z"/>
		<path style="fill:#263238;" d="M345.103,396.51c1.911-0.047,5.521-1.732,6.307-2.109c0.655,1.098,1.303,2.242,1.909,3.474
			c1.047,2.118,2.052,4.429,2.767,6.908c0.04,0.138,0.065,0.285,0.103,0.424c-0.276-0.415-1.954-2.584-2.088-2.721
			c-1.712-1.757-6.052-4.145-8.512-2.924c-1.773,0.88-2.176,3.089-1.165,4.695c1.033,1.641,3.315,2.348,5.14,2.505
			c2.103,0.18,6.484-1.396,6.649-1.456c0.641,2.33,1.122,4.771,1.471,7.277c0.256,1.817,0.44,3.667,0.607,5.525
			c-0.372-0.532-1.932-2.547-2.061-2.679c-1.712-1.757-6.052-4.145-8.512-2.924c-1.773,0.879-2.176,3.088-1.165,4.695
			c1.033,1.641,3.315,2.348,5.14,2.504c2.054,0.176,6.258-1.315,6.612-1.442c0.076,0.844,0.155,1.686,0.224,2.533
			c0.227,2.763,0.441,5.534,0.737,8.263c0.102,0.945,0.238,1.873,0.369,2.803c-0.582-0.78-1.668-2.179-1.775-2.288
			c-1.712-1.757-6.052-4.145-8.512-2.924c-1.773,0.88-2.176,3.089-1.165,4.695c1.033,1.641,3.314,2.348,5.14,2.504
			c1.834,0.158,5.396-1.021,6.394-1.366c0.231,1.545,0.493,3.073,0.824,4.565c0.156,0.64,0.275,1.304,0.46,1.91
			c0.174,0.615,0.346,1.224,0.516,1.826c0.396,1.234,0.759,2.383,1.157,3.521c0.197,0.577,0.396,1.117,0.595,1.676
			c-0.471-0.878-1.241-2.258-1.325-2.375c-1.425-1.996-5.354-5.014-7.97-4.18c-1.886,0.601-2.62,2.723-1.863,4.464
			c0.773,1.779,2.921,2.823,4.702,3.254c1.963,0.475,6.203-0.318,6.722-0.418c0.493,1.364,0.986,2.688,1.47,3.917
			c0.208,0.533,0.413,1.043,0.615,1.546l1.823,0.028c-0.303-0.698-0.613-1.425-0.929-2.184c-0.462-1.102-0.932-2.277-1.404-3.49
			c0.47-0.219,4.099-1.945,5.528-3.446c1.6,0.927,3.409,1.691,3.729,1.824c-0.341,1.41-0.661,2.786-0.935,4.078
			c-0.25,1.162-0.47,2.257-0.672,3.3l0.67,0.01h1.053c0.164-0.949,0.342-1.941,0.543-2.987c0.223-1.174,0.479-2.414,0.754-3.686
			c0.532,0.079,4.794,0.684,6.732,0.124c1.76-0.509,3.86-1.646,4.554-3.456c0.68-1.773-0.146-3.86-2.056-4.379
			c-2.651-0.719-6.444,2.468-7.78,4.524c-0.086,0.132-0.922,1.802-1.332,2.663c0.169-0.768,0.335-1.531,0.525-2.328
			c0.263-1.148,0.58-2.352,0.88-3.521c0.178-0.601,0.357-1.207,0.538-1.82c0.169-0.622,0.407-1.194,0.611-1.802
			c0.317-0.884,0.689-1.779,1.058-2.674c1.153,0.339,4.552,1.275,6.312,1.046c1.817-0.236,4.065-1.042,5.026-2.727
			c0.94-1.649,0.44-3.838-1.369-4.64c-2.511-1.113-6.743,1.463-8.376,3.293c-0.053,0.06-0.358,0.482-0.715,0.987
			c0.387-0.862,0.77-1.725,1.191-2.586c1.194-2.443,2.486-4.893,3.77-7.355c0.268-0.513,0.527-1.029,0.793-1.543
			c0.969,0.29,4.643,1.337,6.486,1.097c1.816-0.236,4.066-1.042,5.025-2.727c0.94-1.65,0.441-3.838-1.369-4.639
			c-2.511-1.113-6.742,1.463-8.376,3.293c-0.058,0.066-0.421,0.571-0.823,1.14c0.678-1.347,1.338-2.699,1.951-4.06
			c1.075-2.379,2.004-4.782,2.721-7.18c0.34,0.106,4.623,1.42,6.673,1.154c1.816-0.236,4.065-1.042,5.025-2.726
			c0.94-1.65,0.44-3.838-1.369-4.64c-2.511-1.112-6.743,1.463-8.376,3.293c-0.116,0.13-1.416,1.968-1.859,2.64
			c0.008-0.028,0.021-0.057,0.029-0.086c0.729-2.524,1.113-5.024,1.362-7.413c0.252-2.382,0.286-4.648,0.264-6.732
			c-0.016-2.086-0.16-3.992-0.302-5.678c-0.083-0.912-0.176-1.746-0.272-2.522c0.009,0.007,0.047,0.034,0.047,0.034
			c0.041,0.028,1.012-3.164,1.051-3.372c0.44-2.413-0.125-7.335-2.546-8.633c-1.743-0.935-3.778,0.014-4.502,1.77
			c-0.74,1.792,0.005,4.061,0.935,5.64c0.952,1.618,4.094,3.909,4.88,4.468c0.083,0.808,0.163,1.673,0.23,2.631
			c0.104,1.685,0.206,3.589,0.178,5.666c-0.006,0.553-0.036,1.148-0.054,1.725c-0.171-0.979-0.426-2.319-0.465-2.447
			c-0.72-2.344-3.491-6.452-6.237-6.489c-1.978-0.027-3.346,1.753-3.18,3.645c0.169,1.931,1.876,3.602,3.429,4.575
			c1.619,1.015,5.56,1.602,6.423,1.721c-0.059,1.277-0.149,2.589-0.324,3.95c-0.295,2.344-0.732,4.826-1.502,7.289
			c-0.043,0.137-0.104,0.273-0.149,0.41c-0.001-0.498-0.204-3.232-0.24-3.421c-0.458-2.409-2.761-6.796-5.486-7.134
			c-1.964-0.244-3.519,1.375-3.562,3.273c-0.044,1.939,1.469,3.787,2.905,4.924c1.655,1.311,6.178,2.413,6.349,2.454
			c-0.751,2.297-1.696,4.598-2.788,6.881c-0.789,1.656-1.657,3.301-2.542,4.943c-0.017-0.648-0.207-3.19-0.241-3.371
			c-0.459-2.41-2.761-6.796-5.487-7.134c-1.964-0.244-3.519,1.375-3.561,3.273c-0.044,1.939,1.47,3.787,2.905,4.924
			c1.616,1.28,5.945,2.355,6.311,2.444c-0.402,0.746-0.802,1.492-1.211,2.236c-1.336,2.43-2.685,4.859-3.943,7.298
			c-0.436,0.845-0.835,1.694-1.238,2.541c-0.055-0.971-0.19-2.737-0.218-2.888c-0.459-2.41-2.761-6.796-5.487-7.135
			c-1.964-0.244-3.519,1.375-3.562,3.274c-0.044,1.938,1.469,3.787,2.906,4.924c1.443,1.143,5.063,2.126,6.087,2.388
			c-0.66,1.416-1.284,2.836-1.831,4.263c-0.223,0.62-0.49,1.239-0.67,1.846c-0.194,0.609-0.387,1.211-0.578,1.807
			c-0.35,1.248-0.681,2.406-0.977,3.576c-0.154,0.59-0.285,1.15-0.428,1.726c0.091-0.993,0.21-2.568,0.205-2.712
			c-0.088-2.451-1.699-7.135-4.342-7.883c-1.904-0.539-3.687,0.826-4.017,2.696c-0.042,0.238-0.059,0.477-0.056,0.718
			c-1.18,1.844-1.8,4.484-1.787,6.113c0.001,0.157,0.225,2.011,0.359,2.955c-0.282-0.734-0.565-1.461-0.847-2.231
			c-0.413-1.103-0.813-2.282-1.209-3.422c-0.183-0.599-0.368-1.204-0.555-1.814c-0.201-0.613-0.318-1.221-0.485-1.84
			c-0.223-0.912-0.407-1.864-0.593-2.814c1.148-0.353,4.501-1.448,5.841-2.609c1.385-1.199,2.817-3.112,2.688-5.046
			c-0.126-1.895-1.75-3.444-3.702-3.115c-2.708,0.458-4.816,4.94-5.169,7.368c-0.011,0.079-0.033,0.599-0.052,1.217
			c-0.153-0.932-0.31-1.863-0.433-2.813c-0.352-2.696-0.626-5.453-0.913-8.214c-0.06-0.575-0.128-1.15-0.19-1.725
			c0.968-0.292,4.61-1.446,6.015-2.663c1.385-1.199,2.816-3.112,2.687-5.046c-0.126-1.894-1.75-3.444-3.701-3.115
			c-2.709,0.458-4.817,4.94-5.17,7.367c-0.013,0.087-0.037,0.709-0.058,1.405c-0.177-1.498-0.372-2.989-0.612-4.463
			c-0.417-2.577-0.966-5.094-1.691-7.488c0.342-0.1,4.639-1.367,6.201-2.719c1.385-1.199,2.816-3.112,2.688-5.046
			c-0.126-1.895-1.75-3.444-3.701-3.115c-2.709,0.458-4.817,4.941-5.17,7.368c-0.025,0.172-0.096,2.422-0.094,3.227
			c-0.009-0.029-0.014-0.059-0.023-0.087c-0.785-2.508-1.843-4.805-2.953-6.934c-1.105-2.126-2.325-4.034-3.494-5.761
			c-1.164-1.73-2.336-3.241-3.384-4.57c-0.573-0.715-1.11-1.359-1.618-1.953c0.012,0,0.058,0.001,0.058,0.001
			c0.05,0.001-0.901-3.197-0.984-3.392c-0.963-2.256-4.151-6.048-6.886-5.796c-1.97,0.181-3.143,2.096-2.78,3.959
			c0.372,1.903,2.246,3.385,3.892,4.189c1.687,0.824,5.571,1.002,6.535,1.033c0.516,0.629,1.059,1.306,1.643,2.068
			c1.017,1.348,2.152,2.88,3.274,4.628c0.3,0.465,0.604,0.977,0.907,1.468c-0.683-0.722-1.635-1.699-1.738-1.784
			c-1.894-1.558-6.47-3.455-8.782-1.971c-1.665,1.069-1.824,3.309-0.642,4.795C340.926,396.103,343.272,396.555,345.103,396.51z"/>
		<path style="fill:#263238;" d="M351.529,393.892c-0.043,0.026-0.827-3.218-0.854-3.428c-0.3-2.434,0.549-7.315,3.041-8.471
			c1.795-0.833,3.77,0.233,4.392,2.027c0.635,1.832-0.24,4.054-1.259,5.577C355.653,391.384,351.532,393.889,351.529,393.892z"/>
	</g>
</g>
<g id="Line_2">
	<g>
		
			<line style="fill:none;stroke:#263238;stroke-linecap:round;stroke-linejoin:round;stroke-miterlimit:10;" x1="436.047" y1="452.309" x2="451.067" y2="452.309"/>
		
			<line style="fill:none;stroke:#263238;stroke-linecap:round;stroke-linejoin:round;stroke-miterlimit:10;" x1="52.276" y1="452.309" x2="426.372" y2="452.309"/>
	</g>
</g>
<g id="Line_1">
	
		<line style="fill:none;stroke:#263238;stroke-linecap:round;stroke-linejoin:round;stroke-miterlimit:10;" x1="253.986" y1="36.31" x2="253.986" y2="452.338"/>
</g>
<g id="Character">
	<g>
		<path style="opacity:0.2;" d="M350.756,285.38c-0.802-1.069-1.769-1.927-2.545-2.616c-0.3-0.266-0.566-0.501-0.772-0.708
			c-0.166-0.168-23.636-28.633-25.558-31.898c-0.568-0.965-1.276-2.448-2.026-4.018c-2.093-4.38-3.684-7.531-5.097-8.173
			c-0.103-0.047-7.319-3.244-12.825-5.342c3.458-1.384,7.127-3.477,6.406-8.203c-0.521-3.42-2.369-6.04-3.999-8.352
			c-1.995-2.827-3.717-5.269-2.445-8.348c0.868-2.1,2.178-3.725,3.445-5.297c2.247-2.788,4.57-5.671,4.216-11.073
			c-0.478-7.291-4.847-25.376-14.72-31.62c-9.18-5.808-31.744-6.249-32.988-6.269c-1.165-0.124-10.463-0.999-12.614,2.134
			l-0.293,0.424c-0.473,0.683-0.929,1.343-1.282,2.007c-2.743-0.465-6.327-0.442-8.243,2.174c-2.342,3.199,1.215,8.635,3.641,11.694
			c-0.648,1.078-1.288,2.158-1.885,3.197c-3.468,6.025-3.534,6.14-2.821,7.347l0.1,0.172c0.5,0.878,0.843,2.615,0.952,3.221
			c-2.109,2.492-5.576,6.42-6.348,6.86c-0.442,0.252-0.577,0.61-0.612,0.865c-0.139,1.019,1.033,2.296,2.464,3.737l1.279,1.286
			c0.172,1.032,1.099,6.587,1.818,10.711c-0.048-0.043-0.083-0.097-0.14-0.131c-0.777-0.465-1.704,0.385-2.007,0.663
			c-1.977,1.813-6.406,9.028-6.769,11.028c-0.245,1.349-0.312,5.734-0.331,8.117c-0.491,0.642-0.944,1.252-1.337,1.802
			c-10.949,2.708-21.276,5.659-21.497,7.202c-0.363,2.543-0.92,32.707-0.004,46.638c0.448,6.81,0.05,11.837-0.241,15.508
			c-0.304,3.834-0.505,6.365,0.483,8.143c0.727,1.308,2.364,3.028,4.172,4.707c1.946,3.466,6.003,9.633,9.54,12.302
			c-0.069,0.175-0.134,0.339-0.206,0.522c-0.005,0.012-0.003,0.025-0.007,0.038c-3.853,9.889-11.356,31.126-12.545,49.31
			c-1.604,24.52,13.725,76.801,13.88,77.325c0.06,0.204,0.247,0.344,0.46,0.344h33.728c0.265,0,0.48-0.215,0.48-0.48v-64.568
			c0-0.563,0.458-1.022,1.022-1.022c0.563,0,1.022,0.458,1.022,1.022v64.568c0,0.265,0.215,0.48,0.48,0.48h33.728
			c0.191,0,0.364-0.113,0.44-0.289c0.206-0.475,20.565-47.836,16.437-78.568c-1.14-8.488-2.629-16.18-4.188-22.878
			c0.871,0.167,1.665,0.266,2.167,0.21c1.682-0.187,4.813-2.007,5.777-3.357c0.839-1.175,2.096-4.099,2.304-4.589l20.543-24.776
			c1.777,0.905,2.614,1.15,3.032,1.15c0.301,0,0.386-0.126,0.451-0.224c0.128-0.192,0.44-0.627,0.86-1.213
			c5.673-7.918,5.84-8.812,5.442-9.343c-0.128-0.17-1.059-0.667-2.508-1.372c1.864-2.757,7.237-10.852,8.162-13.937
			C351.973,289.818,351.946,286.968,350.756,285.38z M321.728,298.652l-0.702,1.403c-0.018,0.036-0.031,0.074-0.039,0.112
			l-1.755,8.072c-0.042,0.194,0.038,0.394,0.204,0.502c0.242,0.16,0.473,0.311,0.708,0.466l-13.55,27.369
			c-1.093-1.187-2.652-2.895-3.382-3.765l-0.175-0.207c-0.467-0.55-1.44-1.697-3.137-3.959c-0.508-0.678-0.919-1.931-1.316-3.143
			c-0.591-1.801-1.058-3.225-1.951-3.527c-0.172-0.059-0.417-0.091-0.703,0.012c-0.115-1.264-0.517-3.048-0.912-4.792
			c-0.326-1.441-0.635-2.802-0.705-3.576c-0.175-1.922,1.255-11.969,1.249-11.984l9.914-29.564l18.573,21.299
			c-0.982,0.045-2.309,0.231-2.834,0.873c-0.231,0.283-0.306,0.627-0.215,0.993c0.186,0.74,0.595,2.059,0.959,3.198
			C321.865,298.479,321.779,298.55,321.728,298.652z M238.806,213.664c0.446,1.981,2.326,3.473,3.733,3.572
			c0.951,0.069,4.54-0.186,5.789-0.279c0.127,0.626,0.395,1.929,0.773,3.669c-0.938,0.473-2.551,1.532-3.299,3.453
			c-1.04-0.909-2.284-1.948-3.47-2.86c-0.208-2.485-0.671-3.947-1.443-4.558c-0.377-0.299-0.829-0.396-1.309-0.285
			c-0.988,0.232-1.554,1.182-1.856,2.393c-0.462-0.029-0.797,0.05-1.004,0.268c-0.118,0.124-0.175,0.267-0.194,0.402
			c-0.456,0.536-1.255,1.481-2.206,2.621l-0.136-2.65c0.655-1.028,3.794-6.004,4.117-7.295c0.016-0.065,0.064-0.273,0.106-0.545
			C238.584,212.554,238.726,213.308,238.806,213.664z"/>
		<g>
			<path style="fill:#263238;stroke:#263238;stroke-linecap:round;stroke-linejoin:round;stroke-miterlimit:10;" d="
				M295.594,370.716c-4.332-32.252-13.38-53.22-13.38-53.22l-76.155-2.619c0,0-13.719,31.289-15.404,57.043
				c-1.685,25.754,14.441,80.389,14.441,80.389h35.14v-67.272c0-0.864,0.7-1.564,1.564-1.564c0.864,0,1.564,0.7,1.564,1.564v67.272
				h35.14C278.505,452.309,299.926,402.968,295.594,370.716z"/>
			<g>
				<path style="fill:#999999;stroke:#263238;stroke-linecap:round;stroke-linejoin:round;stroke-miterlimit:10;" d="
					M282.214,317.496l-76.155-2.619c0,0-0.943,2.155-2.36,5.778c4.357,1.704,15.531,5.255,36.778,7.219
					c21.174,1.957,36.155-4.763,42.533-8.403C282.508,318.18,282.214,317.496,282.214,317.496z"/>
				<g>
					<path style="fill:#999999;stroke:#263238;stroke-linecap:round;stroke-linejoin:round;stroke-miterlimit:10;" d="
						M242.381,329.861c0,0,15.214,4.692,17.501,3.93c2.287-0.762,2.16-4.574,0-6.099c-2.16-1.525-16.901-5.279-16.901-5.279
						s-3.556-0.693-4.953,0.958c-1.398,1.652-0.762,4.701,0.381,5.591C239.552,329.852,242.381,329.861,242.381,329.861z"/>
					<path style="fill:#FFFFFF;stroke:#263238;stroke-linecap:round;stroke-linejoin:round;stroke-miterlimit:10;" d="
						M242.381,329.861c-2.161,0-3.914-1.68-3.914-3.753c0-2.073,1.752-3.753,3.914-3.753c0.205,0,0.403,0.029,0.6,0.058
						c-0.662-0.35-1.412-0.566-2.221-0.566c-2.561,0-4.638,1.991-4.638,4.447c0,2.456,2.076,4.447,4.638,4.447
						c1.198,0,0.88,0.262,1.703-0.453C242.005,330.468,242.906,329.861,242.381,329.861z"/>
				</g>
			</g>
			<g>
				<path style="fill:#92E3A9;stroke:#263238;stroke-linecap:round;stroke-linejoin:round;stroke-miterlimit:10;" d="
					M232.511,217.091c0,0-42.724,9.304-43.103,11.955c-0.379,2.652-0.947,34.092,0,48.486c0.947,14.394-1.705,21.023,0.189,24.432
					s10.228,9.849,11.364,10.796c1.136,0.947,6.25,5.493,6.25,5.493s8.902,3.22,32.577,5.493c23.675,2.273,42.236-4.356,42.425-6.25
					c0.189-1.894-1.515-7.576-1.704-9.659c-0.189-2.083,1.326-12.69,1.326-12.69l10.606-31.63l20.645,23.675
					c0,0-4.167-0.189-3.788,1.326c0.379,1.515,1.705,5.493,1.705,5.493l19.319,8.144c0,0,7.955-11.553,9.091-15.341
					c1.136-3.788,1.136-6.629,0-8.144c-1.136-1.515-2.652-2.652-3.409-3.409s-24.811-30.115-26.705-33.334
					c-1.894-3.22-5.114-11.553-7.197-12.5c-2.083-0.947-16.478-7.197-19.129-7.387C280.32,221.849,262.924,213.848,232.511,217.091z
					"/>
				<g>
					
						<line style="fill:none;stroke:#263238;stroke-linecap:round;stroke-linejoin:round;stroke-miterlimit:10;" x1="209.398" y1="249.921" x2="208.916" y2="246.661"/>
					
						<line style="fill:none;stroke:#263238;stroke-linecap:round;stroke-linejoin:round;stroke-miterlimit:10;" x1="212.326" y1="269.767" x2="209.804" y2="252.674"/>
					
						<line style="fill:none;stroke:#263238;stroke-linecap:round;stroke-linejoin:round;stroke-miterlimit:10;" x1="292.442" y1="263.517" x2="297.555" y2="248.176"/>
					
						<line style="fill:none;stroke:#263238;stroke-linecap:round;stroke-linejoin:round;stroke-miterlimit:10;" x1="299.393" y1="250.718" x2="300.775" y2="247.608"/>
					
						<line style="fill:none;stroke:#263238;stroke-linecap:round;stroke-linejoin:round;stroke-miterlimit:10;" x1="294.714" y1="261.244" x2="298.362" y2="253.038"/>
					<path style="fill:none;stroke:#263238;stroke-linecap:round;stroke-linejoin:round;stroke-miterlimit:10;" d="M241.348,307.307
						c-1.039,6.046-2.743,10.521-2.317,10.947c0.568,0.568,1.894,2.652,1.894,2.652"/>
					<path style="fill:none;stroke:#263238;stroke-linecap:round;stroke-linejoin:round;stroke-miterlimit:10;" d="M242.061,260.297
						c0,0,0.379,31.44,0,40.531c-0.054,1.298-0.166,2.569-0.317,3.796"/>
					<path style="fill:none;stroke:#263238;stroke-linecap:round;stroke-linejoin:round;stroke-miterlimit:10;" d="M262.724,275.765
						c-3.61-0.148-4.564-0.505-4.564-0.505"/>
					<path style="fill:none;stroke:#263238;stroke-linecap:round;stroke-linejoin:round;stroke-miterlimit:10;" d="M257.213,267.873
						c0,0,11.553,1.136,14.773,1.136c3.22,0,14.963-0.947,14.963-0.947l-0.758,6.629c0,0-13.637,1.136-20.076,1.136"/>
					<path style="fill:none;stroke:#263238;stroke-linecap:round;stroke-linejoin:round;stroke-miterlimit:10;" d="M279.373,291.169
						c3.788-1.326,5.114-12.311,5.114-12.311"/>
					<path style="fill:none;stroke:#263238;stroke-linecap:round;stroke-linejoin:round;stroke-miterlimit:10;" d="M257.403,278.101
						c0,0-1.515,12.121-0.758,13.068c0.568,0.71,10.938,1.101,17.685,0.693"/>
					<polyline style="fill:none;stroke:#263238;stroke-linecap:round;stroke-linejoin:round;stroke-miterlimit:10;" points="
						227.856,264.464 235.243,264.464 235.432,271.661 226.152,271.661 					"/>
					<path style="fill:none;stroke:#263238;stroke-linecap:round;stroke-linejoin:round;stroke-miterlimit:10;" d="M234.659,277.345
						c0.352,4.812,0.65,12.12-0.742,12.499c-2.083,0.568-9.091,0.379-9.091,0.379"/>
					<path style="fill:none;stroke:#263238;stroke-linecap:round;stroke-linejoin:round;stroke-miterlimit:10;" d="M234.296,273.177
						c0,0,0.132,1.245,0.277,3.054"/>
					<path style="fill:none;stroke:#263238;stroke-linecap:round;stroke-linejoin:round;stroke-miterlimit:10;" d="M332.229,287.2
						c1.089,0.08,2.057,0.199,2.828,0.37"/>
					<path style="fill:none;stroke:#263238;stroke-linecap:round;stroke-linejoin:round;stroke-miterlimit:10;" d="M316.116,287.571
						c0,0,7.465-0.614,13.454-0.488"/>
					<path style="fill:none;stroke:#263238;stroke-linecap:round;stroke-linejoin:round;stroke-miterlimit:10;" d="M327.48,280.942
						c0,0-8.144,0.947-13.258,4.924"/>
				</g>
			</g>
			<g>
				<path style="fill:#263238;stroke:#263238;stroke-linecap:round;stroke-linejoin:round;stroke-miterlimit:10;" d="
					M236.046,147.173c0,0-8.581-3.369-11.832,1.071c-3.251,4.44,5.767,13.89,5.767,13.89l12.294-15.042L236.046,147.173z"/>
				<g>
					<path style="fill:#92E3A9;stroke:#263238;stroke-linecap:round;stroke-linejoin:round;stroke-miterlimit:10;" d="
						M234.801,211.053c0,0-3.346,1.137-4.104,4.357c-0.758,3.22,0.947,24.622,0.379,29.167c-0.568,4.546,3.788,0,3.788,0l3.788-6.25
						c0,0,6.696,8.287,7.893,7.837c1.198-0.45,5.365-5.943,6.122-5.185c0.758,0.758,5.682,9.281,6.25,4.167
						c0.568-5.114,5.493-16.857,3.409-26.895c-2.083-10.038-4.304-8.036-4.304-8.036L234.801,211.053z"/>
					<path style="fill:#FFFFFF;stroke:#263238;stroke-linecap:round;stroke-linejoin:round;stroke-miterlimit:10;" d="
						M235.009,149.269c0,0-5.195,7.944-8.936,14.444c-3.741,6.5-3.522,6.129-2.834,7.337c0.688,1.208,1.089,3.748,1.089,3.748
						s-5.691,6.749-6.898,7.438c-1.208,0.688,0.594,2.553,2.037,4.007c1.444,1.454,1.444,1.454,1.444,1.454
						s2.31,13.881,2.752,15.844c0.442,1.963,2.284,3.252,3.437,3.333c1.154,0.081,6.399-0.324,6.399-0.324s3.41,17.257,7.264,28.244
						c3.855,10.986,4.626,12.336,5.782,11.372c1.157-0.964,7.132-11.372,11.95-30.453c4.819-19.081,6.107-20.117,6.107-20.117
						s3.586-20.809-2.482-30.703C256.053,154.997,242.433,145.346,235.009,149.269z"/>
					<path style="fill:#263238;" d="M235.825,173.927c0,1.425-0.761,2.58-1.7,2.58c-0.939,0-1.701-1.155-1.701-2.58
						c0-1.425,0.761-2.58,1.701-2.58C235.063,171.346,235.825,172.502,235.825,173.927z"/>
					<path style="fill:none;stroke:#263238;stroke-linecap:round;stroke-linejoin:round;stroke-miterlimit:10;" d="M241.27,167.54
						c-5.346-7.673-10.135-0.965-10.135-0.965"/>
					<path style="fill:none;stroke:#263238;stroke-linecap:round;stroke-linejoin:round;stroke-miterlimit:10;" d="M224.328,174.797
						c0,0,1.208-0.688,1.343-2.611c0.135-1.923,0.135-1.923,0.135-1.923"/>
					<polygon style="fill:#263238;stroke:#263238;stroke-linecap:round;stroke-linejoin:round;stroke-miterlimit:10;" points="
						233.499,206.548 243.466,205.786 236.716,219.902 					"/>
					
						<line style="fill:none;stroke:#263238;stroke-linecap:round;stroke-linejoin:round;stroke-miterlimit:10;" x1="226.386" y1="190.57" x2="229.589" y2="189.68"/>
				</g>
				<path style="fill:#263238;stroke:#263238;stroke-linecap:round;stroke-linejoin:round;stroke-miterlimit:10;" d="
					M247.152,141.427c0,0-10.548-1.127-12.7,2.007c-2.152,3.134-4.045,5.319,0.698,9.324c4.742,4.004,10.639,8.089,10.396,11.55
					c-0.243,3.461,3.14,7.563,5.778,8.521c2.638,0.958,6.19-2.85,4.645,2.645c-1.545,5.495-11.047,5.987-9.28,13.84
					c1.767,7.853,8.389,9.863,5.727,11.995c-2.661,2.132-11.267,8.236-9.725,17.294c1.542,9.059,12.143,15.419,10.794,19.467
					c-1.349,4.048-12.914,5.011-13.107,10.986c-0.193,5.975,7.132,12.721,11.565,13.685c4.433,0.964,10.023-0.385,10.023-0.385
					s-5.204-6.939-3.277-7.902s11.179-0.964,19.66-4.24c8.481-3.277,9.83-15.034,8.095-18.503c-1.735-3.469-5.011-3.855-3.277-6.168
					c1.735-2.313,13.15-2.795,11.959-10.607c-1.19-7.812-9.242-11.469-6.682-17.665c2.561-6.196,8.504-8.291,7.944-16.832
					c-0.56-8.541-5.484-26.469-15.104-32.555S247.152,141.427,247.152,141.427z"/>
			</g>
			<path style="fill:#92E3A9;stroke:#263238;stroke-linecap:round;stroke-linejoin:round;stroke-miterlimit:10;" d="
				M198.689,288.897c0,0-6.629,13.447-5.871,15.72c0.758,2.273,9.849,17.235,14.205,16.099c4.356-1.136,10.228-7.955,11.553-11.364
				c1.326-3.409,2.841-13.447,2.841-13.447s-10.225,2.35-12.878,1.554C205.886,296.662,198.689,288.897,198.689,288.897z"/>
			<g>
				<path style="fill:#FFFFFF;stroke:#263238;stroke-linecap:round;stroke-linejoin:round;stroke-miterlimit:10;" d="
					M229.382,234.777c0,0-0.881-2.014-2.14-5.286c-1.259-3.272-0.755-10.573-0.755-14.223s-0.252-8.81-2.391-8.307
					c-2.14,0.503-2.014,5.412-1.636,7.803s-0.774,9.787-1.331,10.432c-0.557,0.644-0.935,1.4-0.935,1.4s4.909,9.062,6.797,10.824
					C228.879,239.182,229.382,234.777,229.382,234.777z"/>
				<g>
					<path style="fill:#FFFFFF;stroke:#263238;stroke-linecap:round;stroke-linejoin:round;stroke-miterlimit:10;" d="
						M213.195,221.23c0,0,0-8.106,0.345-10.003c0.345-1.897,4.829-9.313,6.898-11.21c2.07-1.897,2.07,0.517,1.725,1.897
						c-0.345,1.38-4.312,7.588-4.312,7.588l0.345,6.726L213.195,221.23z"/>
					<path style="fill:#FFFFFF;stroke:#263238;stroke-linecap:round;stroke-linejoin:round;stroke-miterlimit:10;" d="
						M221.301,209.848c0,0-10.865,12.762-11.038,14.314c-0.172,1.552,10.003,17.936,10.175,18.453
						c0.172,0.517-12.762,30.008-12.762,30.008l-6.209,14.314c0,0,4.829,7.761,7.071,10.52c2.242,2.759,4.139,3.104,5.864,2.242
						c1.725-0.862,7.071-5.346,7.071-5.346l7.416-51.221c0,0,1.725-3.622,1.725-5.691c0-2.07-9.485-12.245-9.485-12.245l1.552-2.242
						c0,0,10.348,3.449,11.555,2.587c1.207-0.862-0.204-2.338-0.204-2.338l-3.073-1.801c0,0,2.762,0.418,2.759-0.69
						c-0.001-0.501-0.69-1.38-0.69-1.38s0.345-1.207-0.517-2.242c-0.862-1.035-7.656-6.941-9.553-7.458
						C221.061,209.115,221.301,209.848,221.301,209.848z"/>
					<path style="fill:#FFFFFF;stroke:#263238;stroke-linecap:round;stroke-linejoin:round;stroke-miterlimit:10;" d="
						M233.028,219.333c0,0-8.458-5.87-9.83-7.144c-1.372-1.274-5.779,4.479-6.661,5.655"/>
					<path style="fill:#FFFFFF;stroke:#263238;stroke-linecap:round;stroke-linejoin:round;stroke-miterlimit:10;" d="
						M230.959,221.403c0,0-5.355-2.068-7.217-3.342c-1.862-1.274-3.626-0.98-4.116-0.588c-0.49,0.392-5.096,5.782-5.096,5.782"/>
				</g>
			</g>
			<path style="fill:#92E3A9;stroke:#263238;stroke-linecap:round;stroke-linejoin:round;stroke-miterlimit:10;" d="
				M202.856,279.995c0,0,7.765,15.152,10.038,15.152c2.273,0,9.849-6.629,9.849-6.629s3.03,6.44,2.462,7.765
				c-0.568,1.326-13.447,9.47-15.909,9.47c-2.462,0-14.394-13.826-12.69-16.857C198.31,285.866,201.719,279.237,202.856,279.995z"/>
			<g>
				<g>
					<path style="fill:#FFFFFF;stroke:#263238;stroke-linecap:round;stroke-linejoin:round;stroke-miterlimit:10;" d="
						M294.671,333.387c0,0-3.523-3.784-4.776-5.278c-0.424-0.505-1.446-1.667-3.467-4.362c-1.492-1.99-2.08-7.824-3.785-6.653
						c-1.705,1.171-1.62,4.72-0.921,5.965c0.698,1.245,1.297,2.13,1.377,2.703c0.08,0.573,2.166,6.035,2.166,6.035
						s7.615,7.279,8.096,5.694C293.84,335.907,294.671,333.387,294.671,333.387z"/>
					<path style="fill:#FFFFFF;stroke:#263238;stroke-linecap:round;stroke-linejoin:round;stroke-miterlimit:10;" d="
						M309.468,301.196l-16.261,32.845c0,0-14.452-9.627-15.184-9.627c-0.731,0-8.775,4.936-10.055,5.85
						c-1.28,0.914-3.108,6.764-3.474,8.41c-0.366,1.645-0.183,2.925,1.097,2.011c1.28-0.914,4.936-7.13,4.936-7.13l5.85-2.56
						c0,0-6.033,6.582-6.216,7.313c-0.183,0.731-4.205,8.775-4.205,9.872c0,1.097,2.377-0.366,2.377-0.366s-0.914,3.474,0,3.474
						s4.753-2.742,6.033-3.839c1.28-1.097,4.022-3.474,4.022-3.474l4.205-2.377c0,0-4.388,5.85-5.119,6.764
						c-0.731,0.914-4.936,5.485-3.108,5.85c1.828,0.366,7.496-5.119,7.496-5.119l5.119-4.022c0,0,5.302,1.645,6.947,1.462
						c1.645-0.183,4.753-2.011,5.667-3.291c0.914-1.28,2.377-4.753,2.377-4.753l23.949-28.885L309.468,301.196z"/>
					<path style="fill:#FFFFFF;stroke:#263238;stroke-linecap:round;stroke-linejoin:round;stroke-miterlimit:10;" d="
						M268.334,347.815l8.41-9.324c0,0,3.474-3.291,6.399-2.742"/>
					<path style="fill:#FFFFFF;stroke:#263238;stroke-linecap:round;stroke-linejoin:round;stroke-miterlimit:10;" d="
						M276.378,330.995c0,0,2.194-2.194,3.839-2.194"/>
				</g>
				<path style="fill:#92E3A9;stroke:#263238;stroke-linecap:round;stroke-linejoin:round;stroke-miterlimit:10;" d="
					M309.285,293.883l-1.828,8.41c0,0,18.83,12.432,19.562,11.335s7.13-9.689,6.582-10.421
					c-0.549-0.731-23.584-10.786-23.584-10.786L309.285,293.883z"/>
			</g>
		</g>
	</g>
</g>
</svg>
